# xmcd
#
# Track frame offsets: 
#        150
#        18062
#        29981
#        49895
#        65488
#        83169
#        98317
#        117261
#        130082
#        148319
#        173312
#        188247
#        204397
#
# Disc length: 2984 seconds
#
# Revision: 2
# Processed by: cddbd v1.5.2PL0 Copyright (c) Steve Scherf et al.
# Submitted via: ExactAudioCopy v0.99pb4
#
DISCID=ab0ba60d
DTITLE=Beccy Cole - Feel This Free
DYEAR=2005
DGENRE=Country
TTITLE0=Rainbows, Dreams And Butterflies
TTITLE1=A Better Woman
TTITLE2=Just Because She Always Has
TTITLE3=So Good For So Long
TTITLE4=To Feel This Free
TTITLE5=Can't Have That
TTITLE6=The Clown Song
TTITLE7=Leave Love Out Of This
TTITLE8=His Hometown
TTITLE9=Jesse
TTITLE10=Some Lessons
TTITLE11=Someone Else's Shoes
TTITLE12=Girls Out There
EXTD=
EXTT0=
EXTT1=
EXTT2=
EXTT3=
EXTT4=
EXTT5=
EXTT6=
EXTT7=
EXTT8=
EXTT9=
EXTT10=
EXTT11=
EXTT12=
PLAYORDER=
